<?xml version="1.0" encoding="UTF-8"?>
<svg version="1.1" viewBox="0 0 1500 1500" xmlns="http://www.w3.org/2000/svg">
<rect width="1500" height="1500" fill="#fff"/>
<g transform="matrix(.66667 0 0 .66667 250.57 324.68)">
<svg width="1500" height="1277" data-background-color="#ffffff" viewBox="0 0 290 247" xmlns="http://www.w3.org/2000/svg" xmlns:xlink="http://www.w3.org/1999/xlink">
<g transform="translate(-.16611 -.1)">
<svg width="290.33" height="247.2" viewBox="0 0 290.3322162080657 247.2">
<svg width="290.33" height="247.2" viewBox="0 0 397.4975999999999 338.44472378353373">
<rect class="rect-qz-0" y="180.27" width="397.5" height="6.8754" rx="1%" fill="#152232" stroke="transparent" stroke-width="0" data-fill-palette-color="primary" data-palette-color="#152232"/>
<rect class="rect-qz-1" y="196.15" width="397.5" height="6.8754" rx="1%" fill="#152232" stroke="transparent" stroke-width="0" data-fill-palette-color="primary" data-palette-color="#152232"/>
<g transform="translate(.9888 221.02)">
<svg width="395.52" height="117.42" viewBox="0 0 395.52 117.4214382280605">
<svg width="395.52" height="117.42" viewBox="0 0 395.52 117.4214382280605">
<svg width="395.52" height="76.24" viewBox="0 0 395.52 76.23995920448749">
<g>
<svg width="395.52" height="76.24" data-palette-color="#152232" viewBox="0.9 -37.5 196.07999999999998 37.8">
<path class="wordmark-text-0" d="m11.6-32.05 5.4-0.75v17q2.2 0 3.78-0.93 1.57-0.92 2.57-2.37t1.48-3.28q0.47-1.82 0.47-3.62 0-1.6-0.32-3.3-0.33-1.7-1.38-3.13-1.05-1.42-3-2.34-1.95-0.93-5.2-0.93-2.2 0-4.15 0.68-1.95 0.67-3.37 1.94-1.43 1.28-2.25 3.15-0.83 1.88-0.83 4.33 0 1.55 0.25 2.6t0.6 1.75 0.7 1.07q0.35 0.38 0.55 0.53-2.8 0-4.4-1.4t-1.6-4.65q0-2.4 1.25-4.53 1.25-2.12 3.35-3.75 2.1-1.62 4.85-2.57t5.8-0.95q3.3 0 5.9 0.82 2.6 0.83 4.35 2.3 1.75 1.48 2.68 3.43 0.92 1.95 0.92 4.2 0 2.1-0.75 4.32-0.75 2.23-2.25 4.03t-3.72 2.97q-2.23 1.18-5.18 1.18h-1.1v14.25h-5.4v-32.05zm20.75-2.25 5-0.7v13.8q0.75-1.35 1.52-2.18 0.78-0.82 1.58-1.22t1.52-0.53q0.73-0.12 1.38-0.12 2.25 0 3.62 0.85 1.38 0.85 2.08 2.17 0.7 1.33 0.92 2.9 0.23 1.58 0.23 3.03 0 0.9-0.05 1.97-0.05 1.08-0.1 2.2-0.05 1.13-0.1 2.25-0.05 1.13-0.05 2.08 0 0.4 0.05 1.12 0.05 0.73 0.25 1.43t0.65 1.22q0.45 0.53 1.3 0.53 1.15 0 2.07-1.3 0.93-1.3 1.53-4.15h1.85q-0.55 3.15-1.4 4.97-0.85 1.83-1.8 2.78t-1.9 1.23q-0.95 0.27-1.75 0.27-1.6 0-2.7-0.63-1.1-0.62-1.8-1.67t-1.03-2.45q-0.32-1.4-0.32-2.9 0-0.45 0.02-1.68 0.03-1.22 0.05-2.62 0.03-1.4 0.05-2.65 0.03-1.25 0.03-1.75 0-1.6-0.25-2.65t-0.7-1.65-1.03-0.85q-0.57-0.25-1.22-0.25-1.55 0-2.68 1.25-1.12 1.25-1.82 4.2v16h-5v-34.3zm32.49 9.05q1.96 0 3.36 0.6 1.39 0.6 2.3 1.67 0.9 1.08 1.42 2.53 0.53 1.45 0.78 3.1h0.3q2.09 0 3.84-0.85t3-2.15l0.75 1.35q-1 1.6-3.17 2.65t-4.47 1.45q0 0.5 0.02 1 0.03 0.5 0.03 1.05 0 6.15-2.25 9.65t-6.3 3.5q-1.65 0-3.33-0.6-1.67-0.6-3.02-2t-2.18-3.6q-0.82-2.2-0.82-5.45 0-2.2 0.47-4.65 0.48-2.45 1.6-4.5 1.13-2.05 3-3.4 1.88-1.35 4.67-1.35zm0.5 21.75q2.66 0 3.91-2.63 1.25-2.62 1.25-7.42 0-0.3 0-0.6t-0.05-0.6q-1.45-0.1-2.08-0.65-0.62-0.55-0.62-1.85 0-1.15 0.5-1.63 0.5-0.47 1.5-0.52-0.6-1.75-1.53-2.43-0.92-0.67-2.07-0.67-1.56 0-2.63 1.02-1.07 1.03-1.75 2.63-0.67 1.6-0.97 3.52-0.3 1.93-0.3 3.78 0 2.45 0.45 4t1.15 2.45 1.55 1.25 1.69 0.35zm11.35-28.4 5-0.7v7.6h3.85v1.75h-3.85v15.25q0 0.6 0.05 1.37 0.05 0.78 0.28 1.48 0.22 0.7 0.7 1.17 0.47 0.48 1.32 0.48 1.35 0 2.58-1.35 1.22-1.35 1.92-4.1h1.85q-0.85 3.15-1.82 4.97-0.98 1.83-2.03 2.78t-2.07 1.23q-1.03 0.27-1.88 0.27-1.8 0-2.95-0.68-1.15-0.67-1.8-1.72t-0.9-2.32q-0.25-1.28-0.25-2.53v-16.3h-1.7v-1.75h1.7v-6.9zm20.9 6.65q1.95 0 3.35 0.6t2.3 1.67q0.9 1.08 1.43 2.53 0.52 1.45 0.77 3.1h0.3q2.1 0 3.85-0.85t3-2.15l0.75 1.35q-1 1.6-3.17 2.65-2.18 1.05-4.48 1.45 0 0.5 0.03 1 0.02 0.5 0.02 1.05 0 6.15-2.25 9.65t-6.3 3.5q-1.65 0-3.33-0.6-1.67-0.6-3.02-2t-2.17-3.6q-0.83-2.2-0.83-5.45 0-2.2 0.47-4.65 0.48-2.45 1.61-4.5 1.12-2.05 3-3.4 1.87-1.35 4.67-1.35zm0.5 21.75q2.65 0 3.9-2.63 1.25-2.62 1.25-7.42 0-0.3 0-0.6t-0.05-0.6q-1.45-0.1-2.07-0.65-0.63-0.55-0.63-1.85 0-1.15 0.5-1.63 0.5-0.47 1.5-0.52-0.6-1.75-1.52-2.43-0.93-0.67-2.08-0.67-1.55 0-2.62 1.02-1.08 1.03-1.75 2.63-0.68 1.6-0.98 3.52-0.3 1.93-0.3 3.78 0 2.45 0.45 4t1.15 2.45 1.55 1.25 1.7 0.35zm11.3-5.45 0.05-25.35 5-0.7v11.85q0.85-0.85 2-1.4t2.75-0.55q1.35 0 2.8 0.47 1.45 0.48 2.7 1.68t2.05 3.3 0.8 5.35q0 2.85-0.68 5.5-0.67 2.65-2.05 4.67-1.37 2.03-3.42 3.23t-4.8 1.2q-1.55 0-2.88-0.48-1.32-0.47-2.27-1.55-0.95-1.07-1.5-2.85-0.55-1.77-0.55-4.37zm13.7-4.2q0-1.95-0.35-3.65t-1.03-2.98q-0.67-1.27-1.65-2-0.97-0.72-2.22-0.72-1 0-1.85 0.47-0.85 0.48-1.55 1.23v13.15q0 4.5 2.95 4.5 1.4 0 2.47-0.83 1.08-0.82 1.8-2.22 0.73-1.4 1.08-3.2t0.35-3.75zm16.35-12.1q1.95 0 3.35 0.6t2.3 1.67q0.9 1.08 1.42 2.53 0.53 1.45 0.78 3.1h0.3q2.1 0 3.85-0.85t3-2.15l0.75 1.35q-1 1.6-3.18 2.65-2.17 1.05-4.47 1.45 0 0.5 0.02 1 0.03 0.5 0.03 1.05 0 6.15-2.25 9.65t-6.3 3.5q-1.65 0-3.33-0.6-1.67-0.6-3.02-2t-2.18-3.6q-0.82-2.2-0.82-5.45 0-2.2 0.47-4.65 0.48-2.45 1.6-4.5 1.13-2.05 3-3.4 1.88-1.35 4.68-1.35zm0.5 21.75q2.65 0 3.9-2.63 1.25-2.62 1.25-7.42 0-0.3 0-0.6t-0.05-0.6q-1.45-0.1-2.08-0.65-0.62-0.55-0.62-1.85 0-1.15 0.5-1.63 0.5-0.47 1.5-0.52-0.6-1.75-1.53-2.43-0.92-0.67-2.07-0.67-1.55 0-2.63 1.02-1.07 1.03-1.75 2.63-0.67 1.6-0.97 3.52-0.3 1.93-0.3 3.78 0 2.45 0.45 4t1.15 2.45 1.55 1.25 1.7 0.35zm20.44-21.75q1.95 0 3.35 0.6t2.3 1.67q0.9 1.08 1.43 2.53 0.52 1.45 0.77 3.1h0.3q2.1 0 3.85-0.85t3-2.15l0.75 1.35q-1 1.6-3.17 2.65-2.18 1.05-4.48 1.45 0 0.5 0.03 1 0.02 0.5 0.02 1.05 0 6.15-2.25 9.65t-6.3 3.5q-1.65 0-3.32-0.6-1.68-0.6-3.03-2t-2.17-3.6q-0.83-2.2-0.83-5.45 0-2.2 0.48-4.65 0.47-2.45 1.6-4.5 1.12-2.05 3-3.4 1.87-1.35 4.67-1.35zm0.5 21.75q2.65 0 3.9-2.63 1.25-2.62 1.25-7.42 0-0.3 0-0.6t-0.05-0.6q-1.45-0.1-2.07-0.65-0.63-0.55-0.63-1.85 0-1.15 0.5-1.63 0.5-0.47 1.5-0.52-0.6-1.75-1.52-2.43-0.93-0.67-2.08-0.67-1.55 0-2.62 1.02-1.08 1.03-1.75 2.63-0.68 1.6-0.98 3.52-0.3 1.93-0.3 3.78 0 2.45 0.45 4t1.15 2.45 1.55 1.25 1.7 0.35zm11.3-30.8 5-0.7v18.15l8.6-8.15h4.85l-8.35 6.75h0.5q2.25 0 3.57 0.75 1.33 0.75 2.06 1.92 0.72 1.18 0.94 2.55 0.23 1.38 0.23 2.58 0 0.5-0.02 1.12-0.03 0.63-0.06 1.25-0.02 0.63-0.05 1.15-0.02 0.53-0.02 0.83 0 0.35 0.05 0.8t0.25 0.85 0.6 0.67q0.4 0.28 1.05 0.28 1.3 0 2.22-1.3 0.93-1.3 1.53-4.15h1.85q-0.6 3.25-1.45 5.07-0.85 1.83-1.83 2.78-0.97 0.95-1.95 1.18-0.97 0.22-1.72 0.22-1.5 0-2.58-0.45-1.07-0.45-1.75-1.23-0.67-0.77-1-1.82-0.32-1.05-0.32-2.2 0-0.2 0-0.88 0-0.67 0.03-1.42 0.02-0.75 0.02-1.43 0-0.67 0-0.92 0-2.6-0.95-3.5t-2.2-0.9q-1.3 0-2.33 0.85-1.02 0.85-1.77 3v10.6h-5v-34.3z" fill="#152232" data-fill-palette-color="primary"/>
</svg>
</g>
</svg>
<g transform="translate(75.544 94.238)">
<svg width="244.43" height="23.183" viewBox="0 0 244.43135999999998 23.18305441441441">
<g>
<svg width="244.43" height="23.183" data-palette-color="#5ebc67" viewBox="2.54 -36.43 390.21 37.02">
<path class="slogan-text-1" d="m2.54-3.32v-32.52q0-0.17 0.16-0.29t0.5-0.17 0.6-0.08q0.25-0.02 0.73-0.03 0.47-0.02 0.65-0.02h19.82q2.44 0 4.61 0.77 2.18 0.77 3.86 2.24 1.69 1.46 2.66 3.78 0.98 2.32 0.98 5.23 0 2.14-0.5 3.93-0.5 1.78-1.32 3.04-0.82 1.25-2 2.25-1.19 1.01-2.42 1.62t-2.72 1.03q-1.49 0.43-2.75 0.63-1.25 0.19-2.65 0.29h-4.68q-0.2 3.83-0.2 8.59v2.74q-0.07 0.88-0.83 0.88h-13.87q-0.63-1.69-0.63-3.91zm13.77-17.09 0.78 1.07q1 0 1.92-0.14 0.91-0.15 1.79-0.52 0.88-0.36 1.51-0.94 0.64-0.57 1.03-1.46t0.39-2.01q0-0.86-0.23-1.53t-0.56-1.1-0.91-0.74q-0.57-0.32-1.07-0.48t-1.27-0.24q-0.77-0.09-1.27-0.1t-1.28-0.01q-0.83 0.39-0.83 8.2zm54.63-12.16v30.03q0 0.51-0.03 0.82-0.04 0.3-0.21 0.57t-0.49 0.27h-12.45v-0.54q-0.05-0.04-0.38-0.22-0.33-0.17-0.4-0.31v-9.87q0-0.53-0.09-0.61-0.08-0.07-0.69-0.07h-1.66q-0.59 0-1.37 0.1v10.54q-0.1 0.44-0.38 0.57-0.28 0.12-0.84 0.12h-1.12q-1.15 0-3.6 0.05-2.46 0.05-3.73 0.05h-3.22q-1.05 0-1.05-1.18l0.15-30.76q0-0.12 0.07-0.21 0.07-0.08 0.29-0.24t0.25-0.18h13.13v10.5h4.25v-10.75h12.45q0.59 0 0.86 0.27 0.26 0.27 0.26 1.05zm3.03 16.36v-1.47l-0.05-0.53q0.46-3.98 0.88-5.54 0.95-3.67 3.42-6.13l0.58-0.59q1.18-1.37 3.57-2.34h0.93q2.39-1 7.86-1.86 1.36 0 2.87 0.21 1.5 0.21 3.33 0.68 1.83 0.48 3.53 1.52 1.69 1.03 2.82 2.47v0.69q4 5 4 11.23 0 7.01-3.22 11.42l-0.98 1.23q-1.12 1.39-2.79 2.39-1.68 1-3.56 1.52-1.88 0.53-3.6 0.75t-3.43 0.22q-2.51 0-4.8-0.6-2.28-0.6-4.27-1.87t-3.5-3.12q-1.52-1.86-2.46-4.48-0.94-2.63-1.13-5.8zm13.43-2.34v1.07q0 8.59 3.27 8.59 0.9 0 1.57-0.34t1.09-1.05 0.68-1.44q0.27-0.73 0.38-1.83t0.15-1.93 0.04-2v-0.88q0-1.27-0.15-2.44t-0.5-2.36q-0.36-1.18-1.09-1.9t-1.78-0.72q-3.66 0-3.66 7.23zm21.28-6.16v-8.79h28.42q0.39 0.08 0.49 0.31t0.1 0.67v7.81q-0.05 0.59-0.69 0.59h-6.93v22.46q0 0.02-0.02 0.12-0.03 0.1-0.03 0.12 0 0.03-0.02 0.1-0.03 0.07-0.05 0.1-0.03 0.02-0.05 0.08-0.02 0.07-0.06 0.08t-0.1 0.05q-0.06 0.03-0.12 0.06-0.06 0.02-0.15 0.03-0.08 0.02-0.18 0.04h-1.56q-3.13 0-3.13-0.19-0.19 0-0.58 0.02t-0.59 0.02h-1.95q-0.56 0-1.6 0.03-1.04 0.02-1.63 0.02h-1.36l-0.98-0.68v-5.27q0.02-1.42 0.21-6.06 0.18-4.64 0.18-7.32v-0.64q0-0.19 0.03-0.61 0.02-0.41 0.02-0.61 0-0.22-0.02-0.89-0.03-0.67-0.03-0.87h-6.1q-0.54 0-1.03-0.18t-0.49-0.6zm29.3 8.5v-1.47l-0.05-0.53q0.46-3.98 0.88-5.54 0.95-3.67 3.42-6.13l0.58-0.59q1.17-1.37 3.57-2.34h0.92q2.4-1 7.87-1.86 1.36 0 2.86 0.21 1.51 0.21 3.34 0.68 1.83 0.48 3.52 1.52 1.7 1.03 2.82 2.47v0.69q4.01 5 4.01 11.23 0 7.01-3.22 11.42l-0.98 1.23q-1.12 1.39-2.8 2.39-1.67 1-3.55 1.52-1.88 0.53-3.6 0.75t-3.43 0.22q-2.51 0-4.8-0.6-2.28-0.6-4.27-1.87t-3.5-3.12q-1.52-1.86-2.46-4.48-0.94-2.63-1.13-5.8zm13.43-2.34v1.07q0 8.59 3.27 8.59 0.9 0 1.57-0.34t1.09-1.05q0.41-0.71 0.68-1.44t0.38-1.83 0.15-1.93q0.03-0.83 0.03-2v-0.88q0-1.27-0.14-2.44-0.15-1.17-0.5-2.36-0.36-1.18-1.09-1.9t-1.78-0.72q-3.66 0-3.66 7.23zm42.67-5.57q-0.66 0-1.07-0.2-0.42-0.19-0.66-0.48-0.25-0.3-0.55-0.59-0.31-0.29-0.97-0.49-0.66-0.19-1.68-0.19-0.32 0-0.77 0.06t-0.99 0.33q-0.54 0.26-0.54 0.68 0 0.46 0.45 0.79 0.46 0.33 1.03 0.47 0.57 0.13 1.29 0.31 0.72 0.19 1.02 0.33l3.59 0.88q1.58 0.44 2.85 0.93t2.7 1.33 2.38 1.87q0.95 1.02 1.59 2.57 0.63 1.56 0.63 3.41 0 2.25-0.58 4v-0.04q-0.52 1.56-1.44 2.79-0.93 1.23-2.2 2.05t-2.57 1.37q-1.29 0.55-2.99 0.88-1.69 0.33-3.02 0.49-1.33 0.15-3.07 0.28-7.69-0.39-10.3-2.44v-0.3q-2.22-1.66-3.28-3.61-1.07-1.95-1.26-4.4 0-0.58 0.54-0.58 0.14 0 0.44 0.02 0.29 0.03 0.44 0.03h2.49q0.34-0.05 0.97-0.05h0.64q0.19 0 0.34 0.05 1.41-0.05 4.83-0.05h1.13q0.48 0 0.75 0.29t0.43 0.72 0.37 0.86q0.2 0.42 0.74 0.72 0.54 0.29 1.42 0.29 0.95 0 1.72-0.5t0.77-1.45q0-0.44-0.42-0.83-0.41-0.39-1.24-0.71t-1.48-0.51q-0.65-0.2-1.75-0.47-1.09-0.27-1.41-0.36h-1.47q-5.29-1.57-7.63-3.97-2.33-2.41-2.33-6.09 0-2.44 0.92-4.4 0.91-1.95 2.41-3.2 1.51-1.24 3.53-2.08 2.03-0.85 4.13-1.2t4.34-0.35q3.98 0 7.39 1.33t5.16 3.45q0.64 0.64 1.03 1.61 0.39 0.98 0.5 1.55 0.11 0.58 0.28 1.92l-0.68 0.98h-4.15q-0.69 0-2.27-0.05-1.59-0.05-2.47-0.05zm53.9 5.86q1.25 0 2.3 0.78t1.68 1.96q0.63 1.19 0.99 2.47 0.35 1.28 0.35 2.41-0.09 2.97-1.69 5.18t-4.26 3.17l-2.05 1.22h-23.05v-32.82h18.55q5.52 0 8.74 2.35 1.42 0.92 2.15 2.68t0.73 3.71q0 2.49-1.08 4.01-1.09 1.51-3.36 2.88zm-12.65 3.12-0.97 6.08q0 0.1 0.34 0.23 0.34 0.14 0.59 0.19h1.9q1.59-0.12 2.55-0.8 0.97-0.67 0.97-2.23 0-0.56-0.13-1.03-0.12-0.46-0.3-0.8-0.19-0.34-0.5-0.61-0.32-0.27-0.6-0.44t-0.75-0.28q-0.46-0.11-0.76-0.17-0.31-0.06-0.81-0.1t-0.77-0.04-0.76 0zm-0.48-10.74q0.19 1.1 0.19 2.54v0.49q0 0.07-0.02 0.24-0.03 0.17-0.03 0.25 0 0.09 0.03 0.42 0.02 0.33 0.02 0.55v0.78q0 0.27 0.2 0.35 0.63 0 1-0.03 0.36-0.02 1.06-0.1 0.7-0.07 1.13-0.29 0.44-0.22 0.91-0.57 0.46-0.36 0.69-0.97 0.24-0.61 0.24-1.41 0-1.1-0.74-1.79-0.73-0.68-1.66-0.89-0.92-0.2-2.1-0.2-0.09 0.05-0.53 0.05v-0.05q-0.39 0.14-0.39 0.63zm20.11 9.67v-1.47l-0.05-0.53q0.47-3.98 0.88-5.54 0.95-3.67 3.42-6.13l0.58-0.59q1.18-1.37 3.57-2.34h0.93q2.39-1 7.86-1.86 1.37 0 2.87 0.21t3.33 0.68q1.83 0.48 3.53 1.52 1.69 1.03 2.82 2.47v0.69q4 5 4 11.23 0 7.01-3.22 11.42l-0.98 1.23q-1.12 1.39-2.79 2.39-1.68 1-3.56 1.52-1.88 0.53-3.6 0.75t-3.43 0.22q-2.51 0-4.79-0.6-2.29-0.6-4.28-1.87t-3.5-3.12q-1.51-1.86-2.45-4.48-0.94-2.63-1.14-5.8zm13.43-2.34v1.07q0 8.59 3.27 8.59 0.9 0 1.57-0.34 0.68-0.34 1.09-1.05 0.42-0.71 0.68-1.44 0.27-0.73 0.38-1.83t0.15-1.93 0.04-2v-0.88q0-1.27-0.15-2.44t-0.5-2.36q-0.36-1.18-1.09-1.9t-1.78-0.72q-3.66 0-3.66 7.23zm22.07 2.34v-1.47l-0.05-0.53q0.46-3.98 0.88-5.54 0.95-3.67 3.41-6.13l0.59-0.59q1.17-1.37 3.56-2.34h0.93q2.39-1 7.86-1.86 1.37 0 2.87 0.21t3.33 0.68q1.84 0.48 3.53 1.52 1.7 1.03 2.82 2.47v0.69q4.01 5 4.01 11.23 0 7.01-3.23 11.42l-0.97 1.23q-1.13 1.39-2.8 2.39t-3.55 1.52q-1.88 0.53-3.6 0.75t-3.43 0.22q-2.52 0-4.8-0.6t-4.27-1.87-3.51-3.12q-1.51-1.86-2.45-4.48-0.94-2.63-1.13-5.8zm13.42-2.34v1.07q0 8.59 3.28 8.59 0.9 0 1.57-0.34t1.09-1.05q0.41-0.71 0.68-1.44t0.38-1.83 0.14-1.93q0.04-0.83 0.04-2v-0.88q0-1.27-0.14-2.44-0.15-1.17-0.51-2.36-0.35-1.18-1.08-1.9t-1.78-0.72q-3.67 0-3.67 7.23zm34.62 17.67h-10.3q-0.44-0.73-0.59-1.02v-32.08h10.79q0.08 0 0.39-0.02 0.32-0.01 0.49 0 0.17 0.02 0.48 0.04 0.3 0.02 0.5 0.09 0.19 0.06 0.4 0.17t0.34 0.3q0.14 0.2 0.19 0.44v10.84q0.8-1.61 2.25-4.64 1.46-3.03 2.14-4.39l1.2-2.57 2.32-0.07q0.48 0 1.47 0.05t1.46 0.05h1.85q0.2 0 0.57-0.03 0.38-0.02 0.55-0.02h1.42q0.1 0 0.34-0.05 3.96 0 3.96 0.59 0 0.34-0.44 0.92-1.13 1.79-3.79 6.51-2.66 4.73-4.29 7.12l9.54 16.45q0 0.03 0 0.17 0 0.15 0 0.2t-0.01 0.16-0.04 0.17q-0.02 0.06-0.06 0.15-0.03 0.08-0.09 0.14-0.07 0.06-0.14 0.14-2.29-0.15-6.84-0.15-0.61 0-1.88 0.02-1.26 0.03-1.87 0.03h-3.33v-0.69q-0.39-0.65-1.68-2.58t-1.88-3.03l-2.73-5.23v10.84q-0.35 0.98-2.69 0.98zm43.94-23.24q-0.66 0-1.07-0.2-0.42-0.19-0.66-0.48-0.24-0.3-0.55-0.59-0.3-0.29-0.96-0.49-0.66-0.19-1.69-0.19-0.32 0-0.77 0.06t-0.99 0.33q-0.53 0.26-0.53 0.68 0 0.46 0.45 0.79t1.02 0.47q0.58 0.13 1.3 0.31 0.72 0.19 1.01 0.33l3.59 0.88q1.59 0.44 2.86 0.93t2.69 1.33q1.43 0.84 2.38 1.87 0.96 1.02 1.59 2.57 0.64 1.56 0.64 3.41 0 2.25-0.59 4v-0.04q-0.51 1.56-1.44 2.79t-2.2 2.05-2.56 1.37q-1.3 0.55-2.99 0.88-1.7 0.33-3.03 0.49-1.33 0.15-3.06 0.28-7.69-0.39-10.31-2.44v-0.3q-2.22-1.66-3.28-3.61t-1.26-4.4q0-0.58 0.54-0.58 0.15 0 0.44 0.02 0.29 0.03 0.44 0.03h2.49q0.34-0.05 0.98-0.05h0.63q0.2 0 0.34 0.05 1.42-0.05 4.84-0.05h1.12q0.49 0 0.76 0.29 0.26 0.29 0.42 0.72t0.37 0.86q0.21 0.42 0.74 0.72 0.54 0.29 1.42 0.29 0.95 0 1.72-0.5t0.77-1.45q0-0.44-0.41-0.83-0.42-0.39-1.25-0.71t-1.48-0.51q-0.64-0.2-1.74-0.47t-1.42-0.36h-1.46q-5.3-1.57-7.63-3.97-2.33-2.41-2.33-6.09 0-2.44 0.91-4.4 0.92-1.95 2.42-3.2 1.5-1.24 3.53-2.08 2.02-0.85 4.12-1.2t4.35-0.35q3.98 0 7.38 1.33 3.41 1.33 5.17 3.45 0.63 0.64 1.02 1.61 0.39 0.98 0.5 1.55 0.11 0.58 0.28 1.92l-0.68 0.98h-4.15q-0.68 0-2.27-0.05t-2.47-0.05z" fill="#5ebc67" data-fill-palette-color="secondary"/>
</svg>
</g>
</svg>
</g>
</svg>
</svg>
</g>
<g transform="translate(131.13)">
<svg width="135.23" height="162.28" viewBox="0 0 135.23035635931635 162.27642763117962">
<svg class="icon-icon-0" width="135.23" height="162.28" enable-background="new 0 0 96 96" fill="#5ebc67" data-fill-palette-color="accent" version="1.1" viewBox="8 0 80 96" xml:space="preserve" xmlns="http://www.w3.org/2000/svg" xmlns:xlink="http://www.w3.org/1999/xlink"><path d="m20 60h56v-48h-56v48zm13.668-46.048c3.308 0 6 2.692 6 6 0 3.304-2.692 6-6 6s-6-2.696-6-6c0-3.308 2.692-6 6-6zm-8.356 35.132 9.328-18.24c0.26-0.512 0.736-0.892 1.296-1.028 0.56-0.144 1.152-0.036 1.628 0.292l8.876 6.172 8.912-15.492c0.381-0.664 1.08-1.04 1.86-1 0.761 0.052 1.425 0.524 1.72 1.224l11.78 28.212c0.256 0.615 0.188 1.327-0.18 1.883-0.368 0.557-0.996 0.893-1.664 0.893h-41.772c-0.696 0-1.344-0.364-1.704-0.956-0.368-0.596-0.396-1.332-0.08-1.96z" data-fill-palette-color="accent"/><path d="m35.668 19.952c0 1.105-0.895 2-2 2s-2-0.895-2-2 0.895-2 2-2 2 0.895 2 2z" data-fill-palette-color="accent"/><path d="m86 0h-76c-1.104 0-2 0.9-2 2v92c0 1.1 0.896 2 2 2h76c1.1 0 2-0.9 2-2v-92c0-1.1-0.9-2-2-2zm-22 84h-44c-1.104 0-2-0.9-2-2s0.896-2 2-2h44c1.1 0 2 0.9 2 2s-0.9 2-2 2zm-46-10c0-1.1 0.896-2 2-2h16c1.104 0 2 0.9 2 2s-0.896 2-2 2h-16c-1.104 0-2-0.9-2-2zm62-12c0 1.1-0.9 2-2 2h-60c-1.104 0-2-0.9-2-2v-52c0-1.1 0.896-2 2-2h60c1.1 0 2 0.9 2 2v52z" data-fill-palette-color="accent"/><path d="M56.8 26.296L48.82 40.172c-0.28 0.484-0.752 0.828-1.296 0.952-0.544 0.116-1.116 0.008-1.58-0.312l-8.784-6.1L30.364 48h35.5L56.8 26.296z" data-fill-palette-color="accent"/></svg>
</svg>
</g>
</svg>
</svg>
<rect width="290.33" height="247.2" fill="none" visibility="hidden"/>
</g>
</svg>
</g>
</svg>
